<?xml version="1.0" standalone="no"?>
<!DOCTYPE svg PUBLIC "-//W3C//DTD SVG 20010904//EN" "http://www.w3.org/TR/2001/REC-SVG-20010904/DTD/svg10.dtd">
<svg version="1.0" xmlns="http://www.w3.org/2000/svg" width="719.000000pt" height="435.000000pt"
    viewBox="0 0 719.000000 435.000000" preserveAspectRatio="xMidYMid meet">

    <g transform="translate(0.000000,435.000000) scale(0.100000,-0.100000)" fill="#000000" stroke="none">
        <path d="M2980 2692 c-32 -14 -60 -39 -75 -68 -13 -25 -15 -93 -15 -457 0
-474 0 -475 63 -512 31 -19 54 -20 648 -20 l616 0 36 28 c23 17 40 42 47 65 8
25 10 175 8 459 -3 408 -4 422 -24 450 -48 65 -27 63 -689 62 -330 0 -607 -3
-615 -7z m314 -185 c68 -52 75 -161 15 -223 -100 -104 -259 -39 -259 106 0 62
31 112 84 136 46 21 118 12 160 -19z m708 -264 l128 -128 0 -152 0 -153 -530
0 -530 0 0 68 0 67 103 103 c56 56 109 102 117 102 9 0 51 -36 95 -80 l79 -80
191 190 c105 105 198 190 205 190 8 0 72 -57 142 -127z" />
    </g>
</svg>