<svg width="72" height="51" viewBox="0 0 72 51" fill="none" xmlns="http://www.w3.org/2000/svg">
<path d="M63.1019 2H8.74492C5.0213 2 2 5.11406 2 8.95694C2 11.2627 3.10651 13.4226 4.96169 14.7146L27.416 30.4042C32.5575 33.9953 39.3025 33.9953 44.444 30.4042L66.8917 14.7146C68.7403 13.4226 69.8534 11.2627 69.8534 8.95694V8.95031C69.8468 5.11405 66.8321 2 63.1019 2Z" stroke="#C00405" stroke-width="3" stroke-miterlimit="10" stroke-linecap="round"/>
<path d="M16.9806 33.2002L4.21301 46.3654" stroke="#C00405" stroke-width="3" stroke-miterlimit="10" stroke-linecap="round"/>
<path d="M54.8662 33.2002L67.6405 46.3654" stroke="#C00405" stroke-width="3" stroke-miterlimit="10" stroke-linecap="round"/>
<path d="M2 9.0166V40.8727C2 45.1662 5.37246 48.6447 9.54 48.6447H62.3068C66.4677 48.6447 69.8468 45.1662 69.8468 40.8727V9.0166" stroke="#C00405" stroke-width="3" stroke-miterlimit="10" stroke-linecap="round"/>
</svg>
