<svg width="550" height="200" viewBox="0 0 550 200" fill="none" xmlns="http://www.w3.org/2000/svg">
<path d="M185.26 100C185.26 84.48 179.98 70.07 171 58.73C158.71 43.13 139.65 33.05 118.31 33.05C89.7399 33.05 63.6399 51.9301 54.6899 79.0801C52.6199 85.3801 51.3899 91.51 51.5299 98.14C51.5199 97.82 53.9899 96.2901 54.2599 96.0801C73.2899 81.4601 93.0999 65.71 118.51 68.46C122.31 68.87 126.07 69.66 129.65 71.02C143.32 76.21 151.77 90.71 149.39 105.17C147.04 119.48 133.17 132.94 118.14 131.48C105.09 130.21 95.5699 119.7 83.7299 115.19C68.6599 109.46 50.4599 110.23 36.1399 118.1C18.7999 127.63 10.9099 147.85 10.6499 166.94H11.9899C13.6799 166.19 15.8599 163.3 17.4699 161.98C19.8799 160.01 22.4199 158.18 25.0599 156.54C30.0999 153.41 35.5599 150.92 41.2599 149.27C52.3999 146.05 65.8799 145.58 76.4799 150.9C84.3699 154.86 91.1099 160.93 99.5799 163.75C122.65 171.43 147.98 164.63 165.2 147.74C175.43 137.7 182.28 124.45 184.48 110.28C185 106.88 185.26 103.44 185.26 100Z" fill="#DC0000"/>
<path d="M243.33 99.6501C237.09 99.6501 232.07 97.6901 228.25 93.7801C224.39 89.9201 222.46 84.7301 222.46 78.2301C222.46 71.7201 224.39 66.5401 228.25 62.6801C232.06 58.7701 237.09 56.8101 243.33 56.8101C249.57 56.8101 254.6 58.7401 258.41 62.6001C262.22 66.4601 264.13 71.6701 264.13 78.2301C264.13 84.6801 262.23 89.8701 258.41 93.7801C254.6 97.6901 249.57 99.6501 243.33 99.6501ZM251.14 87.9401C253.02 85.6401 253.96 82.4001 253.96 78.2201C253.96 74.0401 253.02 70.8001 251.14 68.5001C249.26 66.2001 246.65 65.0501 243.32 65.0501C239.99 65.0501 237.38 66.1901 235.51 68.4601C233.64 70.7301 232.69 73.9901 232.69 78.2201C232.69 82.4501 233.63 85.7001 235.51 87.9801C237.39 90.2501 239.99 91.3901 243.32 91.3901C246.65 91.3901 249.26 90.2501 251.14 87.9401Z" fill="#DC0000"/>
<path d="M294.59 57.7501H304.59V98.7001H294.91V92.7501C291.79 97.3501 287.5 99.6501 282.05 99.6501C277.66 99.6501 274.18 98.3701 271.62 95.8001C269.05 93.2301 267.77 89.6001 267.77 84.8901V57.7501H277.77V83.2201C277.77 88.4001 280.33 91.0001 285.47 91.0001C288.01 91.0001 290.16 90.0901 291.94 88.2601C293.71 86.4401 294.6 83.9101 294.6 80.6801V57.7501H294.59Z" fill="#DC0000"/>
<path d="M338.4 57.7501H348.8L333.56 98.7001H322.06L306.9 57.7501H317.61L321.58 68.7801C323.43 74.5501 325.57 81.5001 328.01 89.6501C329.97 83.0901 332.11 76.1101 334.44 68.7001L338.4 57.7501Z" fill="#DC0000"/>
<path d="M351.11 98.7001V57.7501H361.11V98.7001H351.11ZM351.19 52.4401V43.0801H361.03V52.4401H351.19Z" fill="#DC0000"/>
<path d="M396.82 42.2001H406.82V98.7001H397.14V92.9901C394.12 97.4301 389.81 99.6601 384.21 99.6601C378.55 99.6601 374.08 97.7001 370.8 93.7901C367.47 89.8801 365.8 84.6901 365.8 78.2401C365.8 71.6801 367.47 66.4701 370.8 62.6101C374.02 58.7501 378.5 56.8201 384.21 56.8201C389.71 56.8201 393.91 58.9101 396.83 63.0901V42.2001H396.82ZM386.5 91.3901C389.78 91.3901 392.37 90.2501 394.27 87.9801C396.12 85.7101 397.05 82.4501 397.05 78.2201C397.05 73.9901 396.12 70.7301 394.27 68.4601C392.42 66.1901 389.83 65.0501 386.5 65.0501C383.27 65.0501 380.72 66.2401 378.84 68.6201C376.96 71.0001 376.02 74.3101 376.02 78.5401C376.02 82.7701 376.94 85.9701 378.8 88.1401C380.66 90.3101 383.22 91.3901 386.5 91.3901Z" fill="#DC0000"/>
<path d="M432.38 99.6501C426.14 99.6501 421.11 97.6901 417.3 93.7801C413.44 89.9201 411.51 84.7301 411.51 78.2301C411.51 71.7201 413.44 66.5401 417.3 62.6801C421.11 58.7701 426.14 56.8101 432.38 56.8101C438.62 56.8101 443.65 58.7401 447.46 62.6001C451.27 66.4601 453.17 71.6701 453.17 78.2301C453.17 84.6801 451.27 89.8701 447.46 93.7801C443.64 97.6901 438.62 99.6501 432.38 99.6501ZM440.19 87.9401C442.07 85.6401 443.01 82.4001 443.01 78.2201C443.01 74.0401 442.07 70.8001 440.19 68.5001C438.31 66.2001 435.71 65.0501 432.38 65.0501C429.05 65.0501 426.44 66.1901 424.57 68.4601C422.69 70.7301 421.75 73.9901 421.75 78.2201C421.75 82.4501 422.69 85.7001 424.57 87.9801C426.45 90.2501 429.05 91.3901 432.38 91.3901C435.71 91.3901 438.31 90.2501 440.19 87.9401Z" fill="#DC0000"/>
<path d="M482.21 57.2801V66.4801H479.67C475.86 66.4801 472.94 67.4501 470.9 69.3801C468.86 71.3101 467.84 74.1501 467.84 77.9101V98.7001H457.84V57.7501H467.52V65.0501C469.79 59.7601 473.87 57.1201 479.74 57.1201C480.65 57.1201 481.47 57.1701 482.21 57.2801Z" fill="#DC0000"/>
<path d="M486.03 98.7001V57.7501H496.03V98.7001H486.03ZM486.11 52.4401V43.0801H495.95V52.4401H486.11Z" fill="#DC0000"/>
<path d="M529.35 98.7001C528.87 97.8501 528.5 96.1901 528.24 93.7001C525.49 97.6701 521.1 99.6501 515.07 99.6501C510.57 99.6501 506.99 98.5601 504.32 96.4001C501.65 94.2301 500.31 91.2201 500.31 87.3601C500.31 79.9001 505.55 75.6401 516.02 74.5801L522.21 74.0301C524.27 73.7701 525.75 73.2801 526.65 72.5601C527.55 71.8501 528 70.7701 528 69.3501C528 67.6001 527.43 66.3201 526.29 65.5001C525.15 64.6801 523.23 64.2701 520.54 64.2701C517.63 64.2701 515.54 64.7601 514.27 65.7401C513 66.7201 512.26 68.4001 512.05 70.7801H502.21C502.79 61.4701 508.93 56.8201 520.62 56.8201C531.99 56.8201 537.68 60.9201 537.68 69.1201V90.9401C537.68 94.5401 538.24 97.1301 539.34 98.7201H529.35V98.7001ZM525.07 89.9301C527.03 88.2101 528.01 85.7401 528.01 82.5101V78.7801C527.06 79.6301 525.5 80.1801 523.33 80.4501L517.94 81.0901C515.29 81.4101 513.4 82.0301 512.27 82.9601C511.13 83.8801 510.56 85.2201 510.56 86.9701C510.56 88.7201 511.15 90.0801 512.35 91.0601C513.54 92.0401 515.24 92.5301 517.47 92.5301C520.57 92.5101 523.11 91.6501 525.07 89.9301Z" fill="#DC0000"/>
<path d="M238.14 114.65H241.18V141.68H238.3V138.64C236.73 140.97 234.49 142.13 231.58 142.13C228.82 142.13 226.62 141.19 224.98 139.32C223.31 137.45 222.48 134.97 222.48 131.88C222.48 128.74 223.31 126.25 224.98 124.4C226.6 122.55 228.8 121.63 231.58 121.63C234.39 121.63 236.58 122.72 238.15 124.9V114.65H238.14ZM231.95 139.4C233.87 139.4 235.4 138.73 236.54 137.39C237.68 136.07 238.25 134.24 238.25 131.89C238.25 129.56 237.68 127.73 236.54 126.39C235.4 125.05 233.87 124.38 231.95 124.38C230.05 124.38 228.53 125.07 227.37 126.45C226.22 127.83 225.64 129.7 225.64 132.05C225.64 134.38 226.21 136.19 227.35 137.48C228.5 138.75 230.03 139.4 231.95 139.4Z" fill="#DC0000"/>
<path d="M262.09 139.21V141.68C261.58 141.76 261.03 141.79 260.42 141.79C258.37 141.79 257.27 140.85 257.12 138.98C255.75 141.08 253.63 142.13 250.74 142.13C248.59 142.13 246.9 141.63 245.67 140.63C244.44 139.63 243.83 138.22 243.83 136.4C243.83 132.86 246.25 130.83 251.08 130.33L253.89 130.03C255.94 129.8 256.97 128.9 256.97 127.33C256.97 126.24 256.63 125.46 255.96 124.98C255.29 124.5 254.16 124.26 252.56 124.26C250.87 124.26 249.64 124.54 248.9 125.11C248.15 125.68 247.73 126.69 247.63 128.13H244.59C244.84 123.8 247.5 121.64 252.56 121.64C257.47 121.64 259.92 123.54 259.92 127.33V138.26C259.92 138.89 260.27 139.21 260.98 139.21H262.09ZM255.14 138.07C256.35 137.11 256.96 135.73 256.96 133.93V131.61C256.4 132.04 255.54 132.32 254.38 132.45L251.53 132.79C249.88 132.99 248.71 133.37 248.02 133.93C247.32 134.49 246.98 135.28 246.98 136.32C246.98 137.33 247.31 138.12 247.97 138.69C248.63 139.26 249.6 139.54 250.89 139.54C252.51 139.55 253.92 139.06 255.14 138.07Z" fill="#DC0000"/>
<path d="M290.63 141.68L287.48 133.82H275.18L272.07 141.68H268.73L279.51 114.65H283.08L294.01 141.68H290.63ZM276.32 130.93H286.34L286.19 130.59C285.56 129.05 283.91 124.88 281.25 118.1C279.45 122.91 277.85 127.09 276.43 130.63L276.32 130.93Z" fill="#DC0000"/>
<path d="M311.77 124.4C313.41 126.27 314.24 128.77 314.24 131.88C314.24 134.97 313.42 137.45 311.77 139.32C310.1 141.19 307.88 142.13 305.12 142.13C302.21 142.13 299.97 140.97 298.4 138.64V141.68H295.52V114.65H298.56V124.9C300.13 122.72 302.32 121.63 305.13 121.63C307.89 121.63 310.1 122.56 311.77 124.4ZM309.32 137.33C310.47 135.95 311.05 134.08 311.05 131.73C311.05 129.43 310.49 127.62 309.36 126.32C308.23 125.02 306.69 124.37 304.75 124.37C302.83 124.37 301.3 125.03 300.16 126.34C299.02 127.66 298.45 129.5 298.45 131.88C298.45 134.23 299.02 136.07 300.16 137.38C301.3 138.72 302.83 139.39 304.75 139.39C306.65 139.4 308.17 138.71 309.32 137.33Z" fill="#DC0000"/>
<path d="M327.29 121.82V124.74H326.53C324.5 124.74 322.93 125.24 321.8 126.24C320.67 127.24 320.11 128.66 320.11 130.51V141.67H317.07V122.08H319.95V125.53C321.26 123.02 323.37 121.77 326.25 121.77C326.77 121.78 327.12 121.8 327.29 121.82Z" fill="#DC0000"/>
<path d="M345.17 139.21V141.68C344.66 141.76 344.11 141.79 343.5 141.79C341.45 141.79 340.35 140.85 340.2 138.98C338.84 141.08 336.71 142.13 333.82 142.13C331.67 142.13 329.98 141.63 328.75 140.63C327.52 139.63 326.91 138.22 326.91 136.4C326.91 132.86 329.33 130.83 334.16 130.33L336.97 130.03C339.02 129.8 340.04 128.9 340.04 127.33C340.04 126.24 339.71 125.46 339.04 124.98C338.37 124.5 337.23 124.26 335.64 124.26C333.95 124.26 332.73 124.54 331.98 125.11C331.24 125.68 330.81 126.69 330.71 128.13H327.67C327.92 123.8 330.58 121.64 335.64 121.64C340.55 121.64 343.01 123.54 343.01 127.33V138.26C343.01 138.89 343.36 139.21 344.07 139.21H345.17ZM338.23 138.07C339.45 137.11 340.05 135.73 340.05 133.93V131.61C339.49 132.04 338.63 132.32 337.47 132.45L334.62 132.79C332.98 132.99 331.81 133.37 331.11 133.93C330.42 134.49 330.07 135.28 330.07 136.32C330.07 137.33 330.4 138.12 331.06 138.69C331.72 139.26 332.69 139.54 333.98 139.54C335.59 139.55 337.01 139.06 338.23 138.07Z" fill="#DC0000"/>
<path d="M363.32 124.4C364.96 126.27 365.79 128.77 365.79 131.88C365.79 134.97 364.97 137.45 363.32 139.32C361.65 141.19 359.43 142.13 356.67 142.13C353.86 142.13 351.67 141.04 350.1 138.87V149.12H347.06V122.09H349.94V125.13C351.51 122.8 353.75 121.64 356.66 121.64C359.43 121.63 361.64 122.56 363.32 124.4ZM360.87 137.33C362.02 135.95 362.6 134.08 362.6 131.73C362.6 129.43 362.04 127.62 360.91 126.32C359.78 125.02 358.24 124.37 356.3 124.37C354.38 124.37 352.85 125.03 351.71 126.34C350.57 127.66 350 129.5 350 131.88C350 134.23 350.57 136.07 351.71 137.38C352.85 138.72 354.38 139.39 356.3 139.39C358.19 139.4 359.72 138.71 360.87 137.33Z" fill="#DC0000"/>
<path d="M382.75 123.42C383.96 124.61 384.57 126.28 384.57 128.43V141.68H381.53V128.74C381.53 125.83 380.04 124.37 377.05 124.37C375.63 124.37 374.38 124.9 373.29 125.96C372.2 127.02 371.66 128.57 371.66 130.59V141.67H368.62V114.64H371.66V124.78C373.16 122.68 375.15 121.63 377.66 121.63C379.84 121.63 381.53 122.23 382.75 123.42Z" fill="#DC0000"/>
<path d="M405.45 132.95H390.57C390.72 135.08 391.31 136.68 392.35 137.75C393.39 138.82 394.81 139.36 396.6 139.36C399.31 139.36 401.04 138.15 401.8 135.72H404.95C404.42 137.69 403.43 139.26 401.99 140.41C400.54 141.56 398.72 142.14 396.52 142.14C393.81 142.14 391.62 141.22 389.95 139.37C388.26 137.52 387.41 135.03 387.41 131.89C387.41 128.8 388.24 126.32 389.91 124.45C391.55 122.58 393.73 121.64 396.44 121.64C399.25 121.64 401.45 122.62 403.04 124.56C404.63 126.51 405.43 128.95 405.43 131.89V132.95H405.45ZM392.54 125.9C391.53 126.9 390.9 128.34 390.64 130.21H402.18C402.03 128.49 401.45 127.09 400.43 126.01C399.42 124.93 398.09 124.4 396.44 124.4C394.86 124.4 393.55 124.9 392.54 125.9Z" fill="#DC0000"/>
<path d="M433.86 123.47C435.04 124.7 435.63 126.34 435.63 128.39V141.68H432.59V128.7C432.59 125.82 431.22 124.37 428.49 124.37C427.05 124.37 425.85 124.94 424.9 126.1C423.95 127.25 423.48 128.88 423.48 130.98V141.69H420.44V128.71C420.44 125.83 419.07 124.38 416.34 124.38C414.92 124.38 413.73 124.95 412.77 126.11C411.81 127.26 411.33 128.89 411.33 130.99V141.7H408.29V122.11H411.17V124.99C412.46 122.76 414.34 121.65 416.82 121.65C419.76 121.65 421.77 122.88 422.86 125.33C424.22 122.88 426.24 121.65 428.9 121.65C431.03 121.63 432.68 122.25 433.86 123.47Z" fill="#DC0000"/>
</svg>
