<svg width="175" height="134" viewBox="0 0 175 134" fill="none" xmlns="http://www.w3.org/2000/svg">
<path d="M174.61 66.95C174.61 51.43 169.33 37.02 160.35 25.68C148.06 10.08 129 0 107.66 0C79.09 0 52.99 18.88 44.04 46.03C41.97 52.33 40.74 58.46 40.88 65.09C40.87 64.77 43.34 63.24 43.61 63.03C62.64 48.41 82.45 32.66 107.86 35.41C111.66 35.82 115.42 36.61 119 37.97C132.67 43.16 141.12 57.66 138.74 72.12C136.39 86.43 122.52 99.89 107.49 98.43C94.44 97.16 84.92 86.65 73.08 82.14C58.01 76.41 39.81 77.18 25.49 85.05C8.15 94.58 0.26 114.8 0 133.89H1.34C3.03 133.14 5.21 130.25 6.82 128.93C9.23 126.96 11.77 125.13 14.41 123.49C19.45 120.36 24.91 117.87 30.61 116.22C41.75 113 55.23 112.53 65.83 117.85C73.72 121.81 80.46 127.88 88.93 130.7C112 138.38 137.33 131.58 154.55 114.69C164.78 104.65 171.63 91.4 173.83 77.23C174.35 73.83 174.61 70.39 174.61 66.95Z" fill="#DC0000"/>
</svg>
