<svg width="219" height="219" viewBox="0 0 219 219" fill="none" xmlns="http://www.w3.org/2000/svg">
<g id="Group">
<g id="Group_2">
<path id="Vector" d="M64.2461 82.2369H82.3688" stroke="#C00405" stroke-width="8" stroke-linecap="round" stroke-linejoin="round"/>
<path id="Vector_2" d="M64.2461 118.482H100.491" stroke="#C00405" stroke-width="8" stroke-linecap="round" stroke-linejoin="round"/>
<path id="Vector_3" d="M64.2461 154.728H145.798" stroke="#C00405" stroke-width="8" stroke-linecap="round" stroke-linejoin="round"/>
<path id="Vector_4" d="M154.859 109.421C129.85 109.421 109.553 89.1235 109.553 64.1142C109.553 39.1049 130.394 18.8075 154.859 18.8075C179.869 18.8075 200.166 39.1049 200.166 64.1142C200.166 89.1235 179.869 109.421 154.859 109.421Z" stroke="#C00405" stroke-width="8" stroke-linecap="round" stroke-linejoin="round"/>
<path id="Vector_5" d="M154.859 66.3796V84.5023" stroke="#C00405" stroke-width="8" stroke-linecap="round" stroke-linejoin="round"/>
<path id="Shape_3077-222" d="M154.859 43.9984C154.134 43.9984 153.59 44.5433 153.59 45.2682C153.59 45.9931 154.134 46.5359 154.859 46.5359C155.583 46.5359 156.127 45.9931 156.127 45.2682C156.127 44.5433 155.583 43.9984 154.859 43.9984Z" fill="#D9D9D9" stroke="#C00405" stroke-width="8" stroke-linecap="round" stroke-linejoin="round"/>
<path id="Vector_6" d="M172.982 105.707V172.85C172.982 182.818 164.827 190.973 154.86 190.973H55.1847C45.2172 190.973 37.062 182.818 37.062 172.85V64.1143C37.062 54.1468 45.2172 45.9916 55.1847 45.9916H113.54" stroke="#C00405" stroke-width="8" stroke-linecap="round" stroke-linejoin="round"/>
</g>
</g>
</svg>
