<svg width="225" height="224" viewBox="0 0 225 224" fill="none" xmlns="http://www.w3.org/2000/svg">
<g id="Group">
<g id="Group_2">
<g id="Group_3">
<path id="Vector" d="M58.7329 186.448C58.7329 167.617 74.0214 152.328 92.8525 152.328H132.007C150.838 152.328 166.127 167.617 166.127 186.448" stroke="#C00405" stroke-width="8" stroke-linecap="round" stroke-linejoin="round"/>
<path id="Vector_2" d="M112.335 129.581C130.098 129.581 144.497 115.182 144.497 97.4189C144.497 79.6562 130.098 65.2566 112.335 65.2566C94.5725 65.2566 80.1729 79.6562 80.1729 97.4189C80.1729 115.182 94.5725 129.581 112.335 129.581Z" stroke="#C00405" stroke-width="8" stroke-linecap="round" stroke-linejoin="round"/>
</g>
<path id="Vector_3" d="M130.981 186.447H177.593C187.848 186.447 196.238 178.057 196.238 167.803V55.9342C196.238 45.6796 187.848 37.2894 177.593 37.2894H47.0798C36.8252 37.2894 28.4351 45.6796 28.4351 55.9342V167.803C28.4351 178.057 36.8252 186.447 47.0798 186.447H93.6917L112.336 205.092L130.981 186.447Z" stroke="#C00405" stroke-width="8" stroke-linecap="round" stroke-linejoin="round"/>
</g>
</g>
</svg>
