<svg width="45" height="61" viewBox="0 0 45 61" fill="none" xmlns="http://www.w3.org/2000/svg">
<path d="M16.5061 51.7454V52.7989C16.5061 56.443 19.4611 59.398 23.1119 59.398C26.7626 59.398 29.7177 56.443 29.7177 52.7922V51.7388" stroke="#C00405" stroke-width="3" stroke-miterlimit="10" stroke-linecap="round"/>
<path d="M25.093 9.65283C32.3017 9.65283 38.1456 15.7087 38.1456 23.1758V31.5241C38.1456 33.1077 38.7551 34.6249 39.8351 35.7447L41.6837 37.6595C42.7637 38.7792 43.3732 40.2965 43.3732 41.88C43.3732 44.9941 40.9349 47.5251 37.9269 47.5251H7.03807C4.03002 47.5251 1.5918 45.0007 1.5918 41.88C1.5918 40.2965 2.20139 38.7792 3.28137 37.6595L5.12988 35.7447C6.20986 34.6249 6.81945 33.1077 6.81945 31.5241V23.1758C6.81945 15.7021 12.6633 9.65283 19.872 9.65283H25.093Z" stroke="#C00405" stroke-width="3" stroke-miterlimit="10" stroke-linecap="round"/>
<path d="M27.7632 9.92434V7.28063C27.7632 4.36534 25.3978 2 22.4825 2C19.5606 2 17.2019 4.36534 17.2019 7.28063V9.92434" stroke="#C00405" stroke-width="3" stroke-miterlimit="10" stroke-linecap="round"/>
</svg>
